PathFileType	4	(X/Y/Z)	output.trc
DataRate	CameraRate	NumFrames	NumMarkers	Units	OrigDataRate	OrigDataStartFrame	OrigNumFrames
200	200	5	66	mm	200	111	295
Frame#	Time			LASI			RASI			RSACR			LSACR			USACR			LBAR			RBAR			RHEE			RMT1			RMT5			RMT2			LHEE			LMT1			LMT5			LMT2			LMMAL			LMFC			LLFC			LLMAL			LTIB4			LTIB2			LTIB3			LTIB1			RMMAL			RMFC			RLFC			RLMAL			RTIB1			RTIB2			RTIB3			RTHI1			RTHI4			RTHI3			RTHI2			LTHI1			LTHI4			LTHI3			LTHI2			FHD			LBHD			RBHD			C7			T10			CLAV			LSHO			RSHO			LRAD			LUL			LRFIN			RRAD			RUL			RUFIN			RLEP			RMEP			LLEP			LMEP			LDUPA			LMUPA			LUUPA			RDUPA			RUUPA			RMUPA			RKJC			LKJC			LAKJC			RAKJC
		X1	Y1	Z1	X2	Y2	Z2	X3	Y3	Z3	X4	Y4	Z4	X5	Y5	Z5	X6	Y6	Z6	X7	Y7	Z7	X8	Y8	Z8	X9	Y9	Z9	X10	Y10	Z10	X11	Y11	Z11	X12	Y12	Z12	X13	Y13	Z13	X14	Y14	Z14	X15	Y15	Z15	X16	Y16	Z16	X17	Y17	Z17	X18	Y18	Z18	X19	Y19	Z19	X20	Y20	Z20	X21	Y21	Z21	X22	Y22	Z22	X23	Y23	Z23	X24	Y24	Z24	X25	Y25	Z25	X26	Y26	Z26	X27	Y27	Z27	X28	Y28	Z28	X29	Y29	Z29	X30	Y30	Z30	X31	Y31	Z31	X32	Y32	Z32	X33	Y33	Z33	X34	Y34	Z34	X35	Y35	Z35	X36	Y36	Z36	X37	Y37	Z37	X38	Y38	Z38	X39	Y39	Z39	X40	Y40	Z40	X41	Y41	Z41	X42	Y42	Z42	X43	Y43	Z43	X44	Y44	Z44	X45	Y45	Z45	X46	Y46	Z46	X47	Y47	Z47	X48	Y48	Z48	X49	Y49	Z49	X50	Y50	Z50	X51	Y51	Z51	X52	Y52	Z52	X53	Y53	Z53	X54	Y54	Z54	X55	Y55	Z55	X56	Y56	Z56	X57	Y57	Z57	X58	Y58	Z58	X59	Y59	Z59	X60	Y60	Z60	X61	Y61	Z61	X62	Y62	Z62	X63	Y63	Z63	X64	Y64	Z64	X65	Y65	Z65	X66	Y66	Z66
110	0.550000	132.816299	762.275696	918.032104	128.540176	984.703430	918.637634	308.311859	912.525024	950.244751	307.487244	852.608948	953.469788	296.627106	882.471008	966.599854	1270.853394	-346.466370	26.314863	1226.414673	1876.946045	26.289854	323.062775	1019.710205	39.870327	128.149002	1043.338989	43.464806	165.003433	1113.781616	34.983932	140.175171	1079.971558	42.694130	326.266266	745.176880	45.850777	134.384338	736.487427	46.343452	169.962250	662.809143	33.445339	143.173477	698.069702	45.933281	276.666260	778.701050	72.954559	232.423218	829.168640	456.884369	218.831268	721.551758	453.956909	278.776001	701.008179	69.158279	290.108856	691.561279	209.672577	313.581512	691.330872	271.349640	263.222687	684.614807	268.215393	301.344025	687.204895	314.382141	275.167297	994.120789	68.374435	234.834106	935.414978	446.573608	220.039963	1041.291870	461.316833	284.653290	1068.566040	72.258690	256.708435	1082.748901	319.273773	307.165344	1077.239746	314.112030	276.300659	1081.353149	256.180481	240.872665	1060.174927	783.886780	241.852310	1066.361816	635.507690	190.680710	1066.640747	636.982361	218.282578	1070.245239	697.199341	237.668564	698.875183	778.889832	235.638046	694.807190	646.507324	185.104660	693.285645	637.398621	199.474152	689.433777	701.148499	130.753311	775.388367	1593.010864	241.444046	786.618286	1575.788574	252.756821	910.151855	1571.273560	262.658936	858.125793	1391.231445	284.672668	877.552917	1007.473694	140.128204	873.037598	1328.457275	244.171661	725.224976	1380.851929	236.310516	987.071228	1396.797852	165.397949	222.867340	1358.057129	206.036911	222.474792	1353.640137	152.120834	130.850967	1337.449341	241.863480	1500.910889	1389.071045	288.746368	1499.905151	1382.848511	236.387558	1591.114990	1391.307983	293.412323	1271.447266	1329.688843	255.058502	1272.044556	1296.197510	220.859756	454.239380	1300.166260	179.874237	466.955505	1277.840942	236.965637	506.244934	1353.837402	201.146179	536.766174	1371.512817	238.075485	585.437744	1362.449951	266.338806	1205.925781	1382.173340	256.944672	1144.240601	1383.881348	216.171432	1212.529907	1385.307251	227.437042	988.353394	453.945221	225.627243	775.360229	455.420654	277.721130	739.854614	71.056419	279.910278	1031.343384	70.316559
111	0.555000	132.807510	762.275879	918.046936	128.527527	984.694397	918.640869	308.299835	912.530273	950.233582	307.484070	852.610535	953.455566	296.617889	882.477051	966.591797	1270.851807	-346.455109	26.306890	1226.420898	1876.952271	26.300085	323.080475	1019.706848	39.872849	128.149155	1043.341919	43.462402	165.064468	1113.654175	34.817596	140.176773	1079.973022	42.694088	326.256012	745.178284	45.844288	134.380188	736.486877	46.347996	170.153061	662.859558	33.269478	143.171661	698.061401	45.927425	276.664520	778.712769	72.963623	232.412460	829.164551	456.892639	218.839386	721.547546	453.954926	278.789764	701.011658	69.154991	290.121399	691.539978	209.691025	313.560059	691.323792	271.382538	263.243500	684.603027	268.223114	301.349335	687.206665	314.378571	275.164368	994.113831	68.375839	234.828537	935.421326	446.567383	220.024429	1041.294434	461.320099	284.647552	1068.568726	72.262497	256.725037	1082.737793	319.269867	307.160950	1077.237549	314.101501	276.300842	1081.355103	256.186981	240.853241	1060.168579	783.884277	241.845871	1066.328369	635.493408	190.672134	1066.651123	636.996765	218.358994	1070.170410	697.096802	237.661636	698.864746	778.884766	235.747055	694.668274	646.712769	185.118851	693.271240	637.400391	199.421448	689.651245	701.148987	130.765671	775.404846	1593.017700	241.452591	786.639526	1575.768799	252.758820	910.167419	1571.257324	262.664978	858.143127	1391.231323	284.671783	877.549377	1007.470337	140.134064	873.043396	1328.447876	244.177521	725.238708	1380.848877	236.315674	987.082825	1396.789795	165.439194	222.877777	1358.088745	206.090424	222.477707	1353.671753	152.145081	130.789047	1337.600586	241.885147	1500.920288	1389.073730	288.761597	1499.907837	1382.845947	236.405136	1591.113892	1391.293579	293.415710	1271.465576	1329.676147	255.076157	1272.057861	1296.194580	220.890259	454.254883	1300.190674	179.912766	466.961182	1277.859131	236.989899	506.260559	1353.846802	201.173111	536.774963	1371.526978	238.108185	585.453125	1362.470703	266.359985	1205.930664	1382.152466	256.962646	1144.247437	1383.866943	216.160248	1212.533203	1385.319092	227.426483	988.357910	453.943726	225.625916	775.356079	455.423767	277.727142	739.862183	71.059311	279.905945	1031.341309	70.319168
112	0.560000	132.806503	762.259705	918.051086	128.520737	984.689026	918.637268	308.298920	912.521667	950.233887	307.473816	852.608093	953.445984	296.614166	882.459351	966.585510	1270.848389	-346.486298	26.307962	1226.414917	1876.964966	26.307741	323.066864	1019.703613	39.864498	128.148300	1043.357178	43.459064	165.061325	1113.665161	34.836514	140.176865	1079.970093	42.694786	326.263702	745.170044	45.851490	134.387024	736.490723	46.351631	170.037048	662.828674	33.374344	143.163422	698.066345	45.932186	276.666779	778.707886	72.964058	232.415314	829.155457	456.897034	218.835861	721.532227	453.956604	278.782593	701.015503	69.161964	290.110718	691.543579	209.687881	313.569672	691.300598	271.379272	263.230316	684.593018	268.216919	301.345154	687.201965	314.366455	275.170837	994.120728	68.380486	234.837814	935.408875	446.577850	220.022415	1041.284546	461.313446	284.644592	1068.569092	72.267914	256.725891	1082.730469	319.267242	307.162750	1077.236938	314.100952	276.275116	1081.361450	256.201508	240.836197	1060.163818	783.879395	241.990036	1065.992920	635.324951	190.673141	1066.652222	636.995239	218.350861	1070.178223	697.072083	237.654495	698.852539	778.892456	235.746002	694.649841	646.702209	185.107681	693.256104	637.406738	199.415512	689.645203	701.161133	130.804138	775.417786	1593.014038	241.459290	786.653564	1575.753906	252.762512	910.199097	1571.253296	262.679596	858.148804	1391.228027	284.660400	877.548706	1007.464478	140.130142	873.054504	1328.449097	244.196228	725.255859	1380.861206	236.319687	987.093384	1396.780273	165.475357	222.886703	1358.131836	206.137680	222.486649	1353.715332	152.201569	130.877228	1337.552856	241.902100	1500.932861	1389.073608	288.773682	1499.919067	1382.845581	236.425552	1591.125366	1391.300781	293.427490	1271.464233	1329.666870	255.088257	1272.065308	1296.187988	220.932526	454.277374	1300.207642	179.948837	466.960724	1277.881104	236.995651	506.278748	1353.869141	201.206421	536.794617	1371.535645	238.132843	585.468323	1362.475952	266.376801	1205.935425	1382.144653	256.980133	1144.258301	1383.861328	216.161987	1212.586548	1385.411255	227.430115	988.346680	453.945648	225.625580	775.343872	455.426819	277.724670	739.861694	71.063011	279.907715	1031.344971	70.324203
113	0.565000	132.803146	762.256042	918.048401	128.523376	984.677368	918.636292	308.288879	912.515198	950.228027	307.476379	852.598877	953.446655	296.613739	882.455994	966.579163	1270.856812	-346.475952	26.317213	1226.416138	1876.929810	26.301525	323.075348	1019.696289	39.869522	128.157852	1043.334351	43.468300	165.062775	1113.669434	34.835045	140.175537	1079.971436	42.695705	326.264557	745.182068	45.860870	134.385254	736.488953	46.347752	170.040436	662.831421	33.378139	143.171936	698.061584	45.933613	276.669098	778.703796	72.968086	232.410294	829.151855	456.895264	218.842529	721.517761	453.952484	278.788696	701.008545	69.162262	290.107605	691.543274	209.695114	313.573425	691.326904	271.371002	263.235107	684.599121	268.222137	301.348328	687.191223	314.376984	275.167847	994.107544	68.382736	234.830811	935.407288	446.575562	220.027298	1041.266235	461.306763	284.647705	1068.566895	72.268417	256.711609	1082.739014	319.282532	307.166595	1077.228516	314.101440	276.286194	1081.343506	256.182922	240.824158	1060.155762	783.882080	241.975037	1065.967163	635.318054	190.668686	1066.636841	636.999817	218.334229	1070.177124	697.077698	237.661331	698.850830	778.901428	235.585220	695.028870	646.490051	185.103943	693.244324	637.420349	199.405685	689.634766	701.164795	130.800507	775.445129	1593.030396	241.462631	786.685852	1575.761108	252.780807	910.218506	1571.251587	262.680023	858.174805	1391.234863	284.665771	877.543701	1007.459045	140.135391	873.056274	1328.438965	244.219406	725.265686	1380.882690	236.330673	987.104553	1396.779175	165.523697	222.892960	1358.160400	206.172394	222.497864	1353.760254	152.262390	130.866989	1337.590698	241.918106	1500.941650	1389.072632	288.772034	1499.931763	1382.839478	236.438995	1591.125122	1391.291992	293.422180	1271.479370	1329.661743	255.083389	1272.077881	1296.182861	220.961365	454.274109	1300.230225	179.983475	466.967712	1277.900757	237.019104	506.298798	1353.888794	201.203796	536.809937	1371.546875	238.210037	585.511963	1362.298218	266.407288	1205.940796	1382.128418	256.999664	1144.272705	1383.847290	216.223114	1212.548584	1385.326904	227.429047	988.336792	453.941162	225.626404	775.334839	455.423889	277.728882	739.856201	71.065170	279.907776	1031.337158	70.325577
114	0.570000	132.785950	762.238098	918.056213	128.511673	984.672302	918.640198	308.281342	912.510437	950.217163	307.461548	852.599060	953.434265	296.613586	882.456543	966.578491	1270.834595	-346.497131	26.295090	1226.420898	1876.946167	26.304247	323.069305	1019.698669	39.875423	128.157608	1043.337158	43.465820	165.061996	1113.665405	34.832111	140.176178	1079.970947	42.692192	326.262573	745.179138	45.863636	134.383041	736.488464	46.348595	170.041367	662.835449	33.378769	143.168625	698.068420	45.937317	276.663269	778.710510	72.971718	232.399734	829.152832	456.896301	218.832718	721.513916	453.958710	278.794922	701.013062	69.169167	290.104645	691.535522	209.685486	313.566589	691.287170	271.413666	263.158081	684.508179	268.193604	301.365570	687.175293	314.390747	275.172577	994.109253	68.386559	234.836578	935.398987	446.579803	220.014587	1041.266846	461.305542	284.651123	1068.565186	72.265236	256.715027	1082.725708	319.267944	307.160217	1077.228760	314.107727	276.273712	1081.342041	256.183624	240.808609	1060.155273	783.881165	241.957230	1065.968872	635.331543	190.662262	1066.628052	636.992310	218.293442	1070.167358	697.067383	237.652283	698.835449	778.902649	235.623642	694.800354	646.493774	185.100235	693.237061	637.428284	199.405640	689.624329	701.164673	130.797256	775.474792	1593.034912	241.485077	786.706787	1575.768066	252.775711	910.233459	1571.235352	262.684509	858.166321	1391.217896	284.657898	877.549011	1007.457092	140.146378	873.056213	1328.429688	244.220596	725.281616	1380.873169	236.331161	987.114685	1396.772949	165.578979	222.896912	1358.200928	206.204742	222.514359	1353.783081	152.298126	130.875534	1337.657715	241.923843	1500.952881	1389.069824	288.778717	1499.947144	1382.838135	236.436371	1591.133789	1391.291748	293.430389	1271.495117	1329.649048	255.085785	1272.088501	1296.174072	220.998260	454.285217	1300.252441	180.016754	466.970886	1277.922119	237.049805	506.305603	1353.906738	201.213623	536.819275	1371.567627	238.159851	585.524963	1362.446045	266.432190	1205.942871	1382.117432	257.015076	1144.269531	1383.835449	216.206757	1212.591797	1385.428345	227.425583	988.332886	453.942688	225.616226	775.333374	455.427490	277.729095	739.861816	71.070442	279.911865	1031.337158	70.325897
